inDegrees=no
num_controls=7
num_derivatives=13
num_iterations=124
num_multipliers=7
num_parameters=0
num_slacks=7
num_states=26
objective=0.448197
objective_accelerations=0.049157
objective_balance=0.007490
objective_effort=0.036480
objective_height=0.350126
objective_ligament=0.004944
solver_duration=1786.525729
status=Solve_Succeeded
success=true
DataType=double
version=3
OpenSimVersion=4.5
endheader
time	/jointset/ground_pelvis/pelvis_tilt/value	/jointset/ground_pelvis/pelvis_tx/value	/jointset/ground_pelvis/pelvis_ty/value	/jointset/hip_l/hip_flexion_l/value	/jointset/hip_l/hip_adduction_l/value	/jointset/hip_l/hip_rotation_l/value	/jointset/back/lumbar_extension/value	/jointset/patellofemoral_l/patellar_flexion_l/value	/jointset/knee_l/knee_flexion_l/value	/jointset/knee_l/knee_adduction_l/value	/jointset/knee_l/knee_rotation_l/value	/jointset/ankle_l/ankle_angle_l/value	/jointset/subtalar_l/subtalar_angle_l/value	/jointset/ground_pelvis/pelvis_tilt/speed	/jointset/ground_pelvis/pelvis_tx/speed	/jointset/ground_pelvis/pelvis_ty/speed	/jointset/hip_l/hip_flexion_l/speed	/jointset/hip_l/hip_adduction_l/speed	/jointset/hip_l/hip_rotation_l/speed	/jointset/back/lumbar_extension/speed	/jointset/patellofemoral_l/patellar_flexion_l/speed	/jointset/knee_l/knee_flexion_l/speed	/jointset/knee_l/knee_adduction_l/speed	/jointset/knee_l/knee_rotation_l/speed	/jointset/ankle_l/ankle_angle_l/speed	/jointset/subtalar_l/subtalar_angle_l/speed	/forceset/tau_hip_flexion_l	/forceset/tau_hip_adduction_l	/forceset/tau_hip_rotation_l	/forceset/tau_knee_flexion_l	/forceset/tau_ankle_angle_l	/forceset/tau_subtalar_angle_l	/forceset/tau_lumbar_extension	lambda_cid13_p0	lambda_cid13_p1	lambda_cid13_p2	lambda_cid13_p3	lambda_cid13_p4	lambda_cid13_p5	lambda_cid14_p0	/jointset/ground_pelvis/pelvis_tilt/accel	/jointset/ground_pelvis/pelvis_tx/accel	/jointset/ground_pelvis/pelvis_ty/accel	/jointset/hip_l/hip_flexion_l/accel	/jointset/hip_l/hip_adduction_l/accel	/jointset/hip_l/hip_rotation_l/accel	/jointset/back/lumbar_extension/accel	/jointset/patellofemoral_l/patellar_flexion_l/accel	/jointset/knee_l/knee_flexion_l/accel	/jointset/knee_l/knee_adduction_l/accel	/jointset/knee_l/knee_rotation_l/accel	/jointset/ankle_l/ankle_angle_l/accel	/jointset/subtalar_l/subtalar_angle_l/accel	gamma_cid13_p0	gamma_cid13_p1	gamma_cid13_p2	gamma_cid13_p3	gamma_cid13_p4	gamma_cid13_p5	gamma_cid14_p0
0.5	-0.4431576983543508	-0.07413273772792942	0.7643996924902597	1.257841098115699	-0.3097812420597262	-0.04818306070343952	-0.329139260108008	0.6835738249796278	0.6835738249795938	-0.1732703572024926	0.1743919958797875	0.03452008676171196	-0.04954730400094845	-0.7351223011872406	-0.2720714042247047	-0.4934895231247448	2.365326916078359	-0.03524417169015387	0.6148987051555199	-0.6227139596804444	1.767663002043364	1.767663002043494	-0.00604985253354881	0.001934753405140916	0.2307286723308924	-0.01055955287560745	-0.2431141113111145	0.01327589002365964	-0.02157752818142712	-0.2043698095083512	0.1441608052575633	0.04563760119564013	0.2192194104698165	7.551687239753326	-23.89025121513454	6.544755165836117	-5.576815306605698	-607.5600515223749	-62.62834859725575	-28.61506268354798	0.6186390333922321	0.700374024550484	-0.3173239363716131	-1.514878615595023	0.5966919411637619	-0.2768171891658198	1.772779982498656	-1.084459059088861	-1.084459059089028	0.02527433681506642	-0.03766591810082536	-0.1234587620610431	0.5767721783000772	-2.599509220425297e-07	-8.037265130226803e-07	1.296260755714302e-06	6.052348341156399e-08	-3.502482178496257e-07	3.758353397466107e-08	-2.982271745706295e-07
0.51	-0.4504764142336162	-0.07681815419194936	0.7594499619083444	1.281414482326581	-0.3101053343869653	-0.04204802379082925	-0.335277851220549	0.7011933758523131	0.7011933758523295	-0.1733325494640861	0.1744099190707093	0.03682018289174208	-0.04962569277823994	-0.7285274006890293	-0.2649921039384071	-0.4963571466279796	2.349049855585591	-0.02958354422745463	0.6120049544505461	-0.6049445394876205	1.756016007108536	1.756016007108529	-0.006363091351137672	0.001671073553888819	0.2292403760639747	-0.005128923552361699	-0.2511757177657534	0.01389636779458944	-0.0216837420640967	-0.2056207116371127	0.1439801408173753	0.04617302890901114	0.2254463832079779	7.250925518903519	-23.96582394736278	6.43766476478402	-5.482997028195044	-611.9946936127176	-62.22742183874112	-27.59278797517075	0.6938970802679421	0.7147000982599309	-0.2566418399359736	-1.729178783503973	0.5492374734726488	-0.3115094042369271	1.787981538698683	-1.239428712466734	-1.239428712487169	-0.05583713121497002	-0.01788263161617647	-0.1690418906924789	0.5245227478453554	-3.153116008343243e-07	-6.354682628783645e-07	1.564728953938553e-06	1.241613200246588e-07	-3.747483345944829e-07	9.314342445148805e-08	-3.21753854537964e-07
0.52	-0.4577263848034532	-0.07943217923958823	0.7544745230348693	1.304816084129058	-0.3103731225746474	-0.03594509546388333	-0.341236956430957	0.7186895349752925	0.7186895349753584	-0.1733971169418892	0.1744257727405228	0.03910389069276599	-0.04965011237459728	-0.7213732393015229	-0.2577931209484902	-0.4986311814366818	2.330970434397374	-0.02398334377876961	0.6084769880226215	-0.5868167792538187	1.742984652102231	1.742984652102088	-0.006524895775490558	0.001520849183485615	0.2274510065296432	0.0002342833112255487	-0.2592373242203913	0.01451684556551994	-0.02178995594676704	-0.2068716137658743	0.1437994763771873	0.04670845662238286	0.2316733559461403	6.946186607029682	-24.04440402920747	6.335285202976093	-5.406444006066125	-616.5122191645344	-61.90524126525382	-26.56611251021742	0.7304912112512791	0.7243105652743089	-0.1986061974651261	-1.875350754684679	0.5846065383609171	-0.4036603337559685	1.84444799069426	-1.361331073384201	-1.361331073384094	0.05556121546226273	-0.0149748219310521	-0.1836734155438028	0.5632876863683774	-3.041443693857975e-07	-5.543684878798832e-07	1.526491550779993e-06	1.28816264755684e-07	-3.512356149550494e-07	1.248592750609432e-07	-3.070532282297794e-07
0.53	-0.4649021685129966	-0.08197367097953422	0.7494793344185789	1.328028114424539	-0.310585205991132	-0.02988016941167295	-0.3470130486715173	0.7360485324289341	0.7360485324289175	-0.1734626505330608	0.1744403385127755	0.0413682763499978	-0.04962122400181572	-0.7136967957408271	-0.2504898104693583	-0.5003036533221268	2.311140635368112	-0.01845566390413366	0.6044349572560095	-0.5683558458734873	1.728583372912388	1.728583372912136	-0.006587459623041896	0.0013940206366489	0.2253779049495985	0.005519384381376481	-0.2670695328725969	0.01489955314279308	-0.02188471169639785	-0.2083810674097925	0.1439466489493972	0.04701394226198974	0.237690404246283	6.740467465184615	-24.04273215906167	6.222708202440203	-5.36390026400215	-621.0199336129773	-61.47647048971404	-25.5395840380064	0.7991905701934303	0.7356800271811184	-0.1362021863020477	-2.081087219241263	0.5333640223556748	-0.4157291909867162	1.8537894594202	-1.514186332499318	-1.514186332515904	-0.0380321648840326	-0.01160063641474425	-0.226358474641759	0.5074258750485826	-2.79505028377695e-07	-4.996354044453459e-07	1.421195057146202e-06	1.187070924947457e-07	-3.183255820814239e-07	1.441212485622012e-07	-2.85040209389973e-07
0.54	-0.4719985938585904	-0.08444166186709921	0.7444704941829908	1.351032988181289	-0.3107427095468021	-0.02385791461570301	-0.3526031568887308	0.753256585092534	0.7532565850924343	-0.1735289831587115	0.1744536232464892	0.04361048500234786	-0.04954022370679063	-0.7055015665115424	-0.243092950472288	-0.5013615052962913	2.289539126651077	-0.01306737161586822	0.5999427367744817	-0.5496199745844507	1.712795694093943	1.71279569409358	-0.006684702671400922	0.001264641475621534	0.2230156055532755	0.01065666775993291	-0.274901741524801	0.01528226072006746	-0.02197946744602683	-0.209890521053711	0.1440938215216074	0.04731942790159796	0.243707452546427	6.530488401191439	-24.04373973551361	6.114471725662463	-5.338307152516343	-625.6150414401192	-61.12095833741239	-24.5137323467861	0.8342483449690823	0.7430204688619949	-0.07568221520902903	-2.22969269223927	0.5567290210868161	-0.4936982767390903	1.899435572435314	-1.638610999104847	-1.638610999104814	0.04862537530072644	-0.01548494476918783	-0.2415129787994565	0.5337241480494781	-2.39960374665381e-07	-4.740739797624066e-07	1.24170552724194e-06	9.226315249801782e-08	-2.75018521799756e-07	1.496044644118369e-07	-2.549368839194363e-07
0.55	-0.4790106061226407	-0.08683530242002496	0.7394541428385176	1.373813349181606	-0.3108468286130409	-0.01788315005219196	-0.3580045939931207	0.7703001268006949	0.7703001268006245	-0.1735957871072059	0.1744657688921213	0.04582776647447045	-0.04940836638725248	-0.6968198846493587	-0.2356272816849015	-0.5018049703670832	2.266252310855156	-0.007781872436292049	0.5949359881864904	-0.5306361502365546	1.695691573973621	1.695691573973368	-0.006676553520828386	0.001166435393642087	0.2203952040909176	0.01568768454710782	-0.282557516002971	0.01549494426308727	-0.02204090641876356	-0.2113798375754714	0.1441385609979245	0.04749800787322405	0.2495246444906398	6.289888897688605	-23.98487865338914	5.997384211784372	-5.226886244007408	-630.0875198901543	-60.68667043995476	-23.48928138602044	0.897250008672931	0.7495374156970476	-0.01315994762308444	-2.420324515648379	0.5105492119021622	-0.5155032612826281	1.902550274513803	-1.779425849808324	-1.779425849791766	-0.02319495452973342	-0.00694551807891266	-0.2791239137552399	0.4836630857738673	-2.097697066539675e-07	-4.369566184216036e-07	1.109909823218133e-06	7.459940965112589e-08	-2.394625870011753e-07	1.57594864994476e-07	-2.305883198125953e-07
